<?xml version="1.0" encoding="UTF-8" standalone="no"?>
<svg width="50px" height="50px" viewBox="0 0 50 50" version="1.1" xmlns="http://www.w3.org/2000/svg" xmlns:xlink="http://www.w3.org/1999/xlink">
    <!-- Generator: sketchtool 40 (33762) - http://www.bohemiancoding.com/sketch -->
    <title>81A274BC-38DA-48D9-AC4A-44342219E285</title>
    <desc>Created with sketchtool.</desc>
    <defs></defs>
    <g id="Symbols" stroke="none" stroke-width="1" fill="none" fill-rule="evenodd">
        <g id="icon-/-faq" fill="#F8562F">
            <path d="M25,44.1972158 C14.4269142,44.1972158 5.80278422,35.5730858 5.80278422,25 C5.80278422,14.4269142 14.4269142,5.80278422 25,5.80278422 C35.5730858,5.80278422 44.1972158,14.4269142 44.1972158,25 C44.1972158,35.5730858 35.5730858,44.1972158 25,44.1972158 M4,25 C4,36.5475638 13.4524362,46 25,46 C36.5475638,46 46,36.5475638 46,25 C46,13.4524362 36.5475638,4 25,4 C13.4524362,4 4,13.4524362 4,25 Z" id="Fill-3"></path>
            <g id="Group-9" transform="translate(18.000000, 14.000000)">
                <g id="Group">
                    <polygon id="Fill-5" points="4.97930342 23 8.5402735 23 8.5402735 19.4390299 4.97930342 19.4390299"></polygon>
                    <path d="M1.9869641,1.86378632 C0.809934188,2.99560256 0.110891453,4.53571795 1.96581196e-05,6.22710256 L2.66310513,6.22710256 C2.90548974,4.1807906 4.66764359,2.61600427 6.79357094,2.61600427 C9.08688718,2.61600427 10.952541,4.4515812 10.952541,6.70774359 C10.952541,8.94532906 9.08688718,10.7656709 6.79357094,10.7656709 L5.4516094,10.7656709 L5.4516094,16.2378932 L8.10172051,16.2378932 L8.10172051,13.2792564 L8.47227607,13.1918761 C11.5411051,12.473765 13.6026521,9.86798291 13.6026521,6.70774359 C13.6026521,2.94645726 10.6117675,0 6.79357094,0 C4.94393846,0 3.23692564,0.661888889 1.9869641,1.86378632 Z" id="Fill-7"></path>
                </g>
            </g>
        </g>
    </g>
</svg>