<?xml version="1.0" encoding="UTF-8" standalone="no"?>
<svg width="22px" height="15px" viewBox="0 0 22 15" version="1.1" xmlns="http://www.w3.org/2000/svg" xmlns:xlink="http://www.w3.org/1999/xlink">
    <!-- Generator: Sketch 40.3 (33839) - http://www.bohemiancoding.com/sketch -->
    <title>mostrarSenhaEyeChecked</title>
    <desc>Created with Sketch.</desc>
    <defs></defs>
    <g id="Documentação" stroke="none" stroke-width="1" fill="none" fill-rule="evenodd">
        <g id="documentacao-diferencas" transform="translate(-1107.000000, -200.000000)" fill="#F03B65">
            <g id="Group-4" transform="translate(816.000000, 81.000000)">
                <g id="icon-/-mostrar-senha" transform="translate(291.000000, 119.000000)">
                    <path d="M0,7.5 C1.73,11.89 6,15 11,15 C16,15 20.27,11.89 22,7.5 C20.27,3.11 16,0 11,0 C6,0 1.73,3.11 0,7.5 Z M6,7.5 C6,4.74 8.24,2.5 11,2.5 C13.76,2.5 16,4.74 16,7.5 C16,10.26 13.76,12.5 11,12.5 C8.24,12.5 6,10.26 6,7.5 Z M8,7.5 C8,9.16 9.34,10.5 11,10.5 C12.66,10.5 14,9.16 14,7.5 C14,5.84 12.66,4.5 11,4.5 C9.34,4.5 8,5.84 8,7.5 Z" id="Shape"></path>
                </g>
            </g>
        </g>
    </g>
</svg>