<?xml version="1.0" encoding="UTF-8" standalone="no"?>
<svg width="50px" height="50px" viewBox="0 0 50 50" version="1.1" xmlns="http://www.w3.org/2000/svg" xmlns:xlink="http://www.w3.org/1999/xlink">
    <!-- Generator: sketchtool 40 (33762) - http://www.bohemiancoding.com/sketch -->
    <title>70C31BC3-5446-46E7-8D34-9E7E47FC279F</title>
    <desc>Created with sketchtool.</desc>
    <defs></defs>
    <g id="Symbols" stroke="none" stroke-width="1" fill="none" fill-rule="evenodd">
        <g id="icon-/-inicio" fill="#ED317A">
            <path d="M29.2855813,32.0204378 L28.3855813,31.1205365 L28.3868979,43.1205365 L28.3869966,44.0204378 L29.2868979,44.0204378 L38.7505458,44.0204378 L39.6539562,44.0204378 L39.6505394,43.1170338 L39.5823614,25.0909752 L38.6823678,25.9943791 L44.9605566,25.9943791 L47.0665213,25.9943791 L45.6110058,24.4723535 L25.6837099,4.68017157 L25.0332607,4 L24.3828115,4.68017157 L4.45551558,24.4723535 L3,25.9943791 L5.10596476,25.9943791 L11.3841535,25.9943791 L10.48416,25.0977831 L10.552338,43.1238417 L10.5557291,44.0204378 L11.4523316,44.0204378 L20.9159795,44.0204378 L21.8160783,44.0204378 L21.8159795,43.1203391 L21.814663,31.1203391 L20.914663,32.0204378 L29.2855813,32.0204378 Z M20.0145642,30.2204378 L20.014663,31.1205365 L20.0159795,43.1205365 L20.9159795,42.2204378 L11.4523316,42.2204378 L12.3523251,43.1170338 L12.2841471,25.0909752 L12.280756,24.1943791 L11.3841535,24.1943791 L5.10596476,24.1943791 L5.75641394,25.7164047 L25.6837099,5.92422279 L24.3828115,5.92422279 L44.3101074,25.7164047 L44.9605566,24.1943791 L38.6823678,24.1943791 L37.7789574,24.1943791 L37.7823742,25.0977831 L37.8505523,43.1238417 L38.7505458,42.2204378 L29.2868979,42.2204378 L30.1868979,43.1203391 L30.1855813,31.1203391 L30.1854826,30.2204378 L29.2855813,30.2204378 L20.914663,30.2204378 L20.0145642,30.2204378 Z" id="Shape"></path>
        </g>
    </g>
</svg>