<?xml version="1.0" encoding="UTF-8"?>
<svg width="50px" height="49px" viewBox="0 0 50 49" version="1.1" xmlns="http://www.w3.org/2000/svg" xmlns:xlink="http://www.w3.org/1999/xlink">
    <!-- Generator: sketchtool 40.3 (33839) - http://www.bohemiancoding.com/sketch -->
    <title>6761FE65-7FAA-4E3A-834F-43C189E458EA</title>
    <desc>Created with sketchtool.</desc>
    <defs>
        <linearGradient x1="84.2341458%" y1="92.399781%" x2="72.3332621%" y2="72.6646638%" id="linearGradient-1">
            <stop stop-color="#DBDBDB" offset="0%"></stop>
            <stop stop-color="#777777" offset="100%"></stop>
        </linearGradient>
    </defs>
    <g id="Symbols" stroke="none" stroke-width="1" fill="none" fill-rule="evenodd">
        <g id="validacao-/-carregando" transform="translate(-86.000000, -145.000000)" fill="url(#linearGradient-1)">
            <path d="M135.062748,167.969903 C134.639186,159.167955 129.305508,150.804074 121.241891,147.142882 C112.538581,143.190128 101.984367,144.840856 94.7301575,150.981041 C87.8385863,156.81371 84.6024055,166.219087 86.567903,175.039892 C88.5188951,183.796873 95.2001362,190.901675 103.900545,193.226909 C114.187858,195.977155 123.584532,191.113455 129.362079,182.646585 C124.121236,189.639695 116.220081,194.258252 107.262924,192.710513 C98.4421193,191.187434 91.1995146,184.469929 89.1832478,175.730355 C87.0349807,166.422164 91.3315148,156.668655 99.6359233,151.948559 C108.246398,147.054398 120.174285,148.861785 125.906865,157.254678 C127.335659,159.346373 128.33944,161.75574 128.861639,164.230381 C129.306958,166.33078 129.119837,168.429728 129.428805,170.525775 C129.701508,172.369426 131.333379,174.936903 133.461338,173.555978 C135.303539,172.360723 135.181693,169.871576 135.062748,167.969903 C135.038088,167.441902 135.129473,169.027355 135.062748,167.969903" id="loading"></path>
        </g>
    </g>
</svg>