<?xml version="1.0" encoding="UTF-8" standalone="no"?>
<svg width="9px" height="23px" viewBox="0 0 9 23" version="1.1" xmlns="http://www.w3.org/2000/svg" xmlns:xlink="http://www.w3.org/1999/xlink">
    <!-- Generator: sketchtool 40.1 (33804) - http://www.bohemiancoding.com/sketch -->
    <title>8F7200DE-F0CA-4082-854F-72F4AAE455F0</title>
    <desc>Created with sketchtool.</desc>
    <defs></defs>
    <g id="Symbols" stroke="none" stroke-width="1" fill="none" fill-rule="evenodd">
        <g id="btn-/-small-desabilitado" transform="translate(-867.000000, -100.000000)" fill="#CCCCCC">
            <g id="arrow-/-next-grey" transform="translate(867.000000, 100.000000)">
                <path d="M5.26794919,12.330127 C5.82023394,13.2867123 7.04341475,13.6144626 8,13.0621778 C8.95658525,12.5098931 9.28433556,11.2867123 8.73205081,10.330127 L3.73205081,1.66987298 C3.17976606,0.713287734 1.95658525,0.385537424 1,0.937822174 C0.043414753,1.49010692 -0.284335557,2.71328773 0.267949192,3.66987298 L5.26794919,12.330127 Z" id="Line"></path>
                <path d="M8.73205081,12.669873 C9.28433556,11.7132877 8.95658525,10.4901069 8,9.93782217 C7.04341475,9.38553742 5.82023394,9.71328773 5.26794919,10.669873 L0.267949192,19.330127 C-0.284335557,20.2867123 0.043414753,21.5098931 1,22.0621778 C1.95658525,22.6144626 3.17976606,22.2867123 3.73205081,21.330127 L8.73205081,12.669873 Z" id="Line"></path>
            </g>
        </g>
    </g>
</svg>