<?xml version="1.0" encoding="UTF-8" standalone="no"?>
<svg width="139px" height="63px" viewBox="0 0 139 63" version="1.1" xmlns="http://www.w3.org/2000/svg" xmlns:xlink="http://www.w3.org/1999/xlink">
    <!-- Generator: sketchtool 40.1 (33804) - http://www.bohemiancoding.com/sketch -->
    <title>0E15A17D-3FA9-47E6-BB2B-2DBEC1CCE42F</title>
    <desc>Created with sketchtool.</desc>
    <defs></defs>
    <g id="Symbols" stroke="none" stroke-width="1" fill="none" fill-rule="evenodd">
        <g id="Logo-/-small" transform="translate(-1.000000, 0.000000)" fill="#FFFFFF">
            <g id="Group-7" transform="translate(1.000000, 0.000000)">
                <path d="M8.6090001,35.862 L3.7470001,25.8 L0.965000095,25.8 L0.965000095,44 L3.7210001,44 L3.7210001,31.364 L7.4650001,39.112 L9.7530001,39.112 L13.4970001,31.364 L13.4970001,44 L16.2530001,44 L16.2530001,25.8 L13.4710001,25.8 L8.6090001,35.862 Z M28.209,28.556 L28.209,25.8 L18.511,25.8 L18.511,28.556 L21.969,28.556 L21.969,41.244 L18.511,41.244 L18.511,44 L28.209,44 L28.209,41.244 L24.751,41.244 L24.751,28.556 L28.209,28.556 Z M43.519,25.8 L40.737,25.8 L40.737,38.852 L33.249,25.8 L30.467,25.8 L30.467,44 L33.249,44 L33.249,30.948 L40.737,44 L43.519,44 L43.519,25.8 Z M56.437,33.444 L48.949,33.444 L48.949,25.8 L46.167,25.8 L46.167,44 L48.949,44 L48.949,36.2 L56.437,36.2 L56.437,44 L59.219,44 L59.219,25.8 L56.437,25.8 L56.437,33.444 Z M65.4289999,37.032 L67.9509999,29.804 L70.4729999,37.032 L65.4289999,37.032 Z M72.8909999,44 L75.7509999,44 L69.3809999,25.8 L66.5209999,25.8 L60.1509999,44 L63.0109999,44 L64.5449999,39.606 L71.3569999,39.606 L72.8909999,44 Z" id="Minha"></path>
                <g id="Group-2" transform="translate(83.000000, 0.000000)">
                    <g id="Page-1">
                        <path d="M19.9719848,32.0481679 C17.9853377,32.0481679 16.8857415,34.0319232 16.8857415,36.0983351 C16.8857415,38.1681206 17.9853377,40.2087475 19.9719848,40.2087475 C21.951764,40.2087475 23.0490709,38.1681206 23.0490709,36.0983351 C23.0490709,34.0319232 21.951764,32.0481679 19.9719848,32.0481679" id="Fill-1"></path>
                        <g id="Group-5" transform="translate(0.000000, 0.040003)">
                            <path d="M31.7208073,43.8159917 C30.26721,43.8159917 29.0830296,40.3588786 29.0830296,36.0915876 C29.0830296,31.824658 30.26721,28.3652557 31.7208073,28.3652557 C33.1754889,28.3652557 34.3544883,31.824658 34.3544883,36.0915876 C34.3544883,40.3588786 33.1754889,43.8159917 31.7208073,43.8159917 M19.972021,43.8109311 C15.6397856,43.8109311 12.7589785,40.3865915 12.7589785,36.0831533 C12.7589785,31.7851371 15.6397856,28.3568213 19.972021,28.3568213 C24.2929303,28.3568213 27.1703636,31.7851371 27.1703636,36.0831533 C27.1703636,40.3865915 24.2929303,43.8109311 19.972021,43.8109311 M31.6876724,21.2733062 C33.1197018,21.2733062 34.2740007,22.4325451 34.2740007,23.8581886 C34.2740007,25.2881697 33.1197018,26.448493 31.6876724,26.448493 C30.2609445,26.448493 29.1045973,25.2881697 29.1045973,23.8581886 C29.1045973,22.4325451 30.2609445,21.2733062 31.6876724,21.2733062 M19.7949,6.81541179 L19.2653443,7.20399361 C-38.1386125,48.6651313 50.663478,81.1731029 54.4455539,50.3306712 C57.2138228,27.753646 51.2025525,-16.8645834 19.7949,6.81541179" id="Fill-3"></path>
                        </g>
                    </g>
                </g>
            </g>
        </g>
    </g>
</svg>