<?xml version="1.0" encoding="UTF-8" standalone="no"?>
<svg width="50px" height="50px" viewBox="0 0 50 50" version="1.1" xmlns="http://www.w3.org/2000/svg" xmlns:xlink="http://www.w3.org/1999/xlink">
    <!-- Generator: sketchtool 40 (33762) - http://www.bohemiancoding.com/sketch -->
    <title>74201548-0CB2-4BEC-921A-3F6E2EA24F68</title>
    <desc>Created with sketchtool.</desc>
    <defs></defs>
    <g id="Symbols" stroke="none" stroke-width="1" fill="none" fill-rule="evenodd">
        <g id="icon-/-play" fill="#F54A47">
            <g id="Group-2" transform="translate(4.000000, 4.000000)">
                <path d="M40.2,21 C40.2,10.3961328 31.6038672,1.8 21,1.8 C10.3961328,1.8 1.8,10.3961328 1.8,21 C1.8,31.6038672 10.3961328,40.2 21,40.2 C31.6038672,40.2 40.2,31.6038672 40.2,21 Z M0,21 C0,9.40202025 9.40202025,0 21,0 C32.5979797,0 42,9.40202025 42,21 C42,32.5979797 32.5979797,42 21,42 C9.40202025,42 0,32.5979797 0,21 Z" id="Oval"></path>
                <path d="M17.8,29.8 L16.8015396,30.4656402 L16,30.0366692 L16,28.8366692 L29.3775019,19.9183346 L30.0015396,20.3343598 L30.0015396,21.6656402 L29.3775019,22.0816654 L16,13.1633308 L16,11.9633308 L16.8015396,11.5343598 L17.8,12.2 L17.8,29.8 Z M16,11 L31,21 L16,31 L16,11 Z" id="Triangle"></path>
            </g>
        </g>
    </g>
</svg>