<?xml version="1.0" encoding="UTF-8" standalone="no"?>
<svg width="50px" height="50px" viewBox="0 0 50 50" version="1.1" xmlns="http://www.w3.org/2000/svg" xmlns:xlink="http://www.w3.org/1999/xlink">
    <!-- Generator: sketchtool 40 (33762) - http://www.bohemiancoding.com/sketch -->
    <title>62538F09-78F0-45E2-8271-D0B7884AF365</title>
    <desc>Created with sketchtool.</desc>
    <defs>
        <polygon id="path-1" points="9.00924941 -9.22962989e-05 0 -9.22962989e-05 0 18.6358918 9.00924941 18.6358918 9.00924941 -9.22962989e-05"></polygon>
    </defs>
    <g id="Symbols" stroke="none" stroke-width="1" fill="none" fill-rule="evenodd">
        <g id="icon-/-recarga">
            <g id="Group-3" transform="translate(4.000000, 3.000000)">
                <polygon id="Fill-1" fill="#F75335" points="11.059322 5.72033898 17.1610169 5.72033898 17.1610169 4.19491525 11.059322 4.19491525"></polygon>
                <path d="M4.95762712,29.440678 C4.36805085,29.440678 3.88983051,29.9188983 3.88983051,30.5084746 C3.88983051,31.0980508 4.36805085,31.5762712 4.95762712,31.5762712 C5.54720339,31.5762712 6.02542373,31.0980508 6.02542373,30.5084746 C6.02542373,29.9188983 5.54720339,29.440678 4.95762712,29.440678" id="Fill-2" fill="#F8562F"></path>
                <path d="M9.53389831,29.440678 C8.94432203,29.440678 8.46610169,29.9188983 8.46610169,30.5084746 C8.46610169,31.0980508 8.94432203,31.5762712 9.53389831,31.5762712 C10.1234746,31.5762712 10.6016949,31.0980508 10.6016949,30.5084746 C10.6016949,29.9188983 10.1234746,29.440678 9.53389831,29.440678" id="Fill-4" fill="#F8562F"></path>
                <path d="M4.95762712,34.0169492 C4.36805085,34.0169492 3.88983051,34.4951695 3.88983051,35.0847458 C3.88983051,35.674322 4.36805085,36.1525424 4.95762712,36.1525424 C5.54720339,36.1525424 6.02542373,35.674322 6.02542373,35.0847458 C6.02542373,34.4951695 5.54720339,34.0169492 4.95762712,34.0169492" id="Fill-6" fill="#F8562F"></path>
                <path d="M9.53389831,34.0169492 C8.94432203,34.0169492 8.46610169,34.4951695 8.46610169,35.0847458 C8.46610169,35.674322 8.94432203,36.1525424 9.53389831,36.1525424 C10.1234746,36.1525424 10.6016949,35.674322 10.6016949,35.0847458 C10.6016949,34.4951695 10.1234746,34.0169492 9.53389831,34.0169492" id="Fill-8" fill="#F8562F"></path>
                <path d="M9.53389831,38.5932203 C8.94432203,38.5932203 8.46610169,39.0714407 8.46610169,39.6610169 C8.46610169,40.2505932 8.94432203,40.7288136 9.53389831,40.7288136 C10.1234746,40.7288136 10.6016949,40.2505932 10.6016949,39.6610169 C10.6016949,39.0714407 10.1234746,38.5932203 9.53389831,38.5932203" id="Fill-10" fill="#F8562F"></path>
                <path d="M14.1101695,38.5932203 C13.5205932,38.5932203 13.0423729,39.0714407 13.0423729,39.6610169 C13.0423729,40.2505932 13.5205932,40.7288136 14.1101695,40.7288136 C14.6997458,40.7288136 15.1779661,40.2505932 15.1779661,39.6610169 C15.1779661,39.0714407 14.6997458,38.5932203 14.1101695,38.5932203" id="Fill-12" fill="#F8562F"></path>
                <path d="M27.4576271,43.4745763 C20.3079661,43.4745763 14.4915254,37.6581356 14.4915254,30.5084746 C14.4915254,23.3588136 20.3079661,17.5423729 27.4576271,17.5423729 C34.6072881,17.5423729 40.4237288,23.3588136 40.4237288,30.5084746 C40.4237288,37.6581356 34.6072881,43.4745763 27.4576271,43.4745763 M18.3050847,43.4745763 L9.91525424,43.4745763 C5.28902542,43.4745763 1.52542373,39.7109746 1.52542373,35.0847458 L1.52542373,26.6949153 L13.4790254,26.6949153 C13.1468644,27.9110593 12.9661017,29.1886017 12.9661017,30.5084746 C12.9661017,35.9626271 15.9959746,40.7208051 20.4601271,43.1931356 C19.7633898,43.3780932 19.0437712,43.4745763 18.3050847,43.4745763 M9.91525424,1.52542373 L18.3050847,1.52542373 C22.5430932,1.52542373 26.055,4.68457627 26.6148305,8.77118644 L1.60550847,8.77118644 C2.16533898,4.68457627 5.67724576,1.52542373 9.91525424,1.52542373 M13.989661,25.1694915 L1.52542373,25.1694915 L1.52542373,10.2966102 L26.6949153,10.2966102 L26.6949153,16.037161 C20.9188983,16.3380508 16.0310593,20.0387288 13.989661,25.1694915 M28.220339,16.037161 L28.220339,9.91525424 C28.220339,4.44813559 23.771822,0 18.304322,0 L9.91525424,0 C4.44813559,0 0,4.44813559 0,9.91525424 L0,35.0847458 C0,40.5522458 4.44813559,45 9.91525424,45 L18.3050847,45 C19.7485169,45 21.1336017,44.6945339 22.4298305,44.0992373 C23.9972034,44.6811864 25.6908051,45 27.4576271,45 C35.448178,45 41.9491525,38.4990254 41.9491525,30.5084746 C41.9491525,22.7738136 35.8577542,16.4352966 28.220339,16.037161" id="Fill-14" fill="#F8562F"></path>
                <g id="Group-2" transform="translate(23.000000, 21.000000)">
                    <mask id="mask-2" fill="white">
                        <use xlink:href="#path-1"></use>
                    </mask>
                    <g id="Clip-2"></g>
                    <path d="M3.94702815,7.89537152 C3.08128887,7.56079744 2.1963981,7.04947594 2.1963981,5.79632294 C2.1963981,4.54824624 3.12420664,3.77318807 4.6177915,3.77318807 C5.79087746,3.77318807 6.57908785,4.50509772 6.79206156,5.78570887 L8.76881755,5.78570887 C8.55999717,3.53091029 7.17693713,2.08462728 5.04835374,1.90718765 L5.04754639,0.00463867188 L4.15350342,0.0205078125 L4.16369371,1.90741839 C1.69822883,2.06016876 0.226102858,3.51383547 0.226102858,5.79632294 C0.226102858,7.69462707 1.18921474,8.98977489 3.17081628,9.75537269 L5.16257041,10.5311231 C6.44272007,11.0276772 7.03895416,11.7614327 7.03895416,12.8396843 C7.03895416,14.0875302 6.11114562,14.8628191 4.6177915,14.8628191 C3.10044035,14.8628191 2.11840773,13.8777869 1.97419476,12.2212991 L-2.30740748e-05,12.2212991 C0.130114707,14.8323613 1.71691883,16.5550718 4.16461667,16.7283581 L4.16571045,18.6877441 L5.0380249,18.6917725 L5.05204559,16.7283581 C7.56688899,16.5938362 9.00924941,15.1766265 9.00924941,12.8396843 C9.00924941,10.7766312 8.11397531,9.51032601 6.10630006,8.7338834 L3.94702815,7.89537152 Z" id="Fill-1" fill="#F8562F" mask="url(#mask-2)"></path>
                </g>
            </g>
        </g>
    </g>
</svg>