<?xml version="1.0" encoding="UTF-8" standalone="no"?>
<svg width="50px" height="50px" viewBox="0 0 50 50" version="1.1" xmlns="http://www.w3.org/2000/svg" xmlns:xlink="http://www.w3.org/1999/xlink">
    <!-- Generator: sketchtool 40 (33762) - http://www.bohemiancoding.com/sketch -->
    <title>4D0B0ADC-95CA-4002-ABAA-47194053F1CE</title>
    <desc>Created with sketchtool.</desc>
    <defs></defs>
    <g id="Symbols" stroke="none" stroke-width="1" fill="none" fill-rule="evenodd">
        <g id="icon-/-fixo" fill="#F14158">
            <g id="XMLID_132_" transform="translate(4.000000, 0.000000)">
                <g id="XMLID_1_" transform="translate(0.000000, 0.000000)">
                    <path d="M32.6430696,35.9910767 C31.9734682,35.9910767 31.3875669,36.576978 31.3875669,37.2465794 C31.3875669,37.9161808 31.9734682,38.5020821 32.6430696,38.5020821 C33.312671,38.5020821 33.8985723,37.9161808 33.8985723,37.2465794 C33.8985723,36.576978 33.312671,35.9910767 32.6430696,35.9910767 L32.6430696,35.9910767 Z M21.7620464,29.2950625 C21.0087448,29.2950625 20.5065437,29.8809637 20.5065437,30.5505651 C20.5065437,31.3038667 21.092445,31.8060678 21.7620464,31.8060678 C22.515348,31.8060678 23.0175491,31.2201666 23.0175491,30.5505651 C23.1012493,29.8809637 22.515348,29.2950625 21.7620464,29.2950625 L21.7620464,29.2950625 Z M15.9030339,29.2950625 C15.2334325,29.2950625 14.6475312,29.8809637 14.6475312,30.5505651 C14.6475312,31.2201666 15.2334325,31.8060678 15.9030339,31.8060678 C16.5726353,31.8060678 17.1585366,31.2201666 17.1585366,30.5505651 C17.2422368,29.8809637 16.6563355,29.2950625 15.9030339,29.2950625 L15.9030339,29.2950625 Z M21.7620464,26.7840571 C22.4316478,26.7840571 23.0175491,26.1981559 23.0175491,25.5285544 C23.0175491,24.858953 22.4316478,24.2730518 21.7620464,24.2730518 C21.092445,24.2730518 20.5065437,24.858953 20.5065437,25.5285544 C20.5065437,26.1981559 21.092445,26.7840571 21.7620464,26.7840571 L21.7620464,26.7840571 Z M15.9030339,24.1893516 C15.1497323,24.1893516 14.6475312,24.7752528 14.6475312,25.4448543 C14.6475312,26.1981559 15.2334325,26.7003569 15.9030339,26.7003569 C16.6563355,26.7003569 17.1585366,26.1144557 17.1585366,25.4448543 C17.2422368,24.7752528 16.6563355,24.1893516 15.9030339,24.1893516 L15.9030339,24.1893516 Z M30.5505651,26.7840571 L28.0395598,26.7840571 L28.0395598,4.18500892 L11.2995241,4.18500892 L11.2995241,0 L9.62552052,0 L9.62552052,26.9514575 C4.43610946,27.7884593 0.418500892,32.2245687 0.418500892,37.6650803 C0.418500892,43.6914932 5.27311124,48.5461035 11.2995241,48.5461035 L30.5505651,48.5461035 C36.576978,48.5461035 41.4315883,43.6914932 41.4315883,37.6650803 C41.4315883,31.6386675 36.576978,26.7840571 30.5505651,26.7840571 L30.5505651,26.7840571 Z M11.2995241,5.85901249 L26.3655562,5.85901249 L26.3655562,17.5770375 L11.2995241,17.5770375 L11.2995241,5.85901249 L11.2995241,5.85901249 Z M11.2995241,19.251041 L26.3655562,19.251041 L26.3655562,36.8280785 L11.2995241,36.8280785 L11.2995241,19.251041 L11.2995241,19.251041 Z M30.5505651,46.8720999 L11.2995241,46.8720999 C6.19381321,46.8720999 2.09250446,42.7707912 2.09250446,37.6650803 C2.09250446,33.1452707 5.35681142,29.3787626 9.62552052,28.625461 L9.62552052,38.5020821 L28.0395598,38.5020821 L28.0395598,28.4580607 L30.5505651,28.4580607 C35.656276,28.4580607 39.7575848,32.5593694 39.7575848,37.6650803 C39.7575848,42.7707912 35.656276,46.8720999 30.5505651,46.8720999 L30.5505651,46.8720999 Z" id="XMLID_3_"></path>
                </g>
            </g>
        </g>
    </g>
</svg>