<?xml version="1.0" encoding="UTF-8" standalone="no"?>
<svg width="50px" height="50px" viewBox="0 0 50 50" version="1.1" xmlns="http://www.w3.org/2000/svg" xmlns:xlink="http://www.w3.org/1999/xlink">
    <!-- Generator: sketchtool 40 (33762) - http://www.bohemiancoding.com/sketch -->
    <title>65BE0DF0-45AB-4112-911F-065E101CCEBB</title>
    <desc>Created with sketchtool.</desc>
    <defs></defs>
    <g id="Symbols" stroke="none" stroke-width="1" fill="none" fill-rule="evenodd">
        <g id="icon-/-wifi" fill="#F03A69">
            <g id="Group-2" transform="translate(2.000000, 8.000000)">
                <path d="M23.0323695,27.5900901 C21.003991,27.5900901 19.3603449,29.249227 19.3603449,31.295045 C19.3603449,33.3408631 21.003991,35 23.0323695,35 C25.0607479,35 26.704394,33.3408631 26.704394,31.295045 C26.704394,29.249227 25.0607479,27.5900901 23.0323695,27.5900901 Z M23.0323695,33.1081081 C22.0416791,33.1081081 21.2378959,32.2967495 21.2378959,31.295045 C21.2378959,30.2933405 22.0416791,29.481982 23.0323695,29.481982 C24.0230598,29.481982 24.826843,30.2933405 24.826843,31.295045 C24.826843,32.2967495 24.0230598,33.1081081 23.0323695,33.1081081 Z" id="Stroke-1"></path>
                <path d="M23.09254,0.000157657658 C14.4436065,0.000157657658 6.36334505,3.59952431 0.53918103,9.83196723 L1.90610486,11.1289337 C7.37936124,5.27199733 14.9670466,1.89204955 23.09254,1.89204955 C31.2184185,1.89204955 38.8061119,5.27200091 44.2789523,11.1289092 L45.6459219,9.83199171 C39.8221633,3.5995388 31.7418693,0.000157657658 23.09254,0.000157657658 Z" id="Stroke-3"></path>
                <path d="M23.0927352,11.7454561 C28.4955575,11.7454561 33.5398778,13.9925345 37.1785127,17.8870544 L38.5455707,16.5902316 C34.5560029,12.3200996 29.019038,9.85356419 23.0927352,9.85356419 C17.1668308,9.85356419 11.6299043,12.3200825 7.6399336,16.5901954 L9.0069239,17.8870907 C12.6459773,13.9925336 17.6902955,11.7454561 23.0927352,11.7454561 Z" id="Stroke-5"></path>
                <path d="M23.0924619,19.7073649 C19.8896149,19.7073649 16.8964057,21.0406311 14.7406081,23.3480293 L16.1076648,24.6448535 C17.9125161,22.7130809 20.4130736,21.5992568 23.0924619,21.5992568 C25.7721914,21.5992568 28.2727663,22.7130469 30.0776494,24.6448535 L31.4447062,23.3480293 C29.2888706,21.0405904 26.2956403,19.7073649 23.0924619,19.7073649 Z" id="Stroke-7"></path>
            </g>
        </g>
    </g>
</svg>